<svg width="291" height="207" viewBox="0 0 291 207" fill="none" xmlns="http://www.w3.org/2000/svg">
<path d="M78.7131 122.989H51.2309V34.2061H176.819V34.8284H51.8531V122.366H78.7131V122.989Z" fill="#373133"/>
<path d="M51.2932 181.942L51.1687 187.729L51.0235 193.786L50.7539 206.17H43.2663V181.942H51.2932Z" fill="#DBDCF1"/>
<path d="M51.2932 181.942L51.0235 193.786L43.2663 192.749V181.942H51.2932Z" fill="#AFAFD5"/>
<path d="M112.791 182.108V206.17H105.303L105.179 200.818L104.889 187.729L104.764 182.108H112.791Z" fill="#DBDCF1"/>
<path d="M112.791 182.108V202.395L105.179 200.818L104.764 182.108H112.791Z" fill="#AFAFD5"/>
<path d="M207.682 181.942L207.537 187.729L207.413 193.786L207.122 206.17H199.655V181.942H207.682Z" fill="#DBDCF1"/>
<path d="M269.159 182.108V206.17H261.693L261.568 200.818L261.278 187.729L261.133 182.108H269.159Z" fill="#DBDCF1"/>
<path d="M207.682 181.942L207.413 193.786L199.655 192.749V181.942H207.682Z" fill="#AFAFD5"/>
<path d="M269.159 182.108V202.395L261.568 200.818L261.133 182.108H269.159Z" fill="#AFAFD5"/>
<path d="M276.709 179.37H35.8824V187.729H276.709V179.37Z" fill="#DBDCF1"/>
<path d="M113.268 154.415L109.555 179.515H127.828L131.541 154.415H113.268Z" fill="#373133"/>
<path d="M71.6196 98.926L75.3738 154.145C75.5397 156.489 77.4894 158.315 79.8539 158.315H166.2C168.792 158.315 170.846 156.116 170.68 153.523L166.905 98.3245C166.739 95.9805 164.789 94.155 162.425 94.155H76.079C73.4863 94.155 71.4329 96.3538 71.6196 98.926Z" fill="#373133"/>
<path d="M116.67 154.415L112.957 179.515H131.23L134.963 154.415H116.67Z" fill="#6D68E0"/>
<path d="M169.912 158.336H83.5458C81.1813 158.336 79.2316 156.51 79.0657 154.166L78.6094 147.445L75.3323 98.9468C75.1663 96.3538 77.2197 94.155 79.8124 94.155H166.158C168.523 94.155 170.472 95.9805 170.638 98.3245L173.978 147.445L174.393 153.565C174.559 156.137 172.505 158.336 169.912 158.336Z" fill="#6D68E0"/>
<path d="M83.2762 147.113L80.2894 102.93C80.1235 100.71 81.9902 98.8223 84.334 98.8223H162.363C164.499 98.8223 166.262 100.399 166.407 102.411L169.435 147.134H83.2762V147.113Z" fill="white"/>
<path d="M105.988 175.802H85.3918V179.515H105.988V175.802Z" fill="#373133"/>
<path d="M159.894 175.802H104.909V179.515H159.894V175.802Z" fill="#6D68E0"/>
<path d="M164.81 136.679H117.727L115.404 104.527H162.487L164.81 136.679ZM118.308 136.057H164.146L161.906 105.149H116.068L118.308 136.057Z" fill="#DBDCF1"/>
<path d="M85.454 104.527L85.8689 112.409H112.418L112.003 104.527H85.454Z" fill="#DBDCF1"/>
<path d="M86.0762 115.106L86.2836 117.803H112.832L112.625 115.106H86.0762Z" fill="#DBDCF1"/>
<path d="M86.4911 120.499L86.6985 123.196H113.247L113.04 120.499H86.4911Z" fill="#DBDCF1"/>
<path d="M86.9059 125.893L87.1134 128.589H113.662L113.455 125.893H86.9059Z" fill="#DBDCF1"/>
<path d="M114.409 134.294H87.2378L86.9889 130.975H114.16L114.409 134.294ZM87.8185 133.672H113.745L113.579 131.597H87.6526L87.8185 133.672Z" fill="#DBDCF1"/>
<path d="M187.066 91.085C187.066 91.085 183.166 123.715 200.589 115.666L202.87 133.589L221.455 129.44L213.635 113.841L204.986 88.7824L187.066 91.085Z" fill="#FCBB9D"/>
<path d="M205.546 121.744C205.546 121.744 222.844 123.715 227.532 113.239C228.838 110.314 231.058 104.402 224.773 100.689C222.678 99.4654 218.177 97.0384 217.825 93.9268C217.555 91.5206 215.709 88.1394 212.743 85.6709C212.743 85.6709 204.322 76.7512 189.43 87.6415C189.43 87.6415 184.017 87.6208 183.27 91.811C183.27 91.811 182.461 97.1213 186.692 98.5941L186.817 94.0306C186.817 94.0306 194.035 102.701 199.614 103.884C199.614 103.884 201.833 99.2787 204.613 102.452C204.613 102.452 205.795 107.14 201.336 108.924C201.336 108.924 201.916 111.165 203.679 113.861C204.799 115.583 206.168 117.595 205.546 121.744Z" fill="#373133"/>
<path d="M199.946 130.871L200.983 124.855L219.235 120.914L221.724 126.1L199.946 130.871Z" fill="#D87245"/>
<path d="M151.868 136.493C151.868 136.493 127.642 132.302 122.705 123.134C122.705 123.134 118.039 133.443 116.566 136.908C116.421 137.239 116.172 138.09 116.172 138.09C116.172 138.09 113.123 147.798 149.399 157.381L151.868 136.493Z" fill="#DBDCF1"/>
<path d="M125.319 112.202L122.851 133.07C122.851 133.07 118.08 133.837 116.296 137.592L118.764 116.724C118.785 116.724 119.822 113.53 125.319 112.202Z" fill="#AFAFD5"/>
<path d="M145.293 163.127L138.863 170.595L135.814 167.546L126.003 157.734L123.514 151.511L122.996 147.051L132.018 151.718C132.018 151.718 132.433 152.548 133.574 152.444C133.574 152.444 134.818 151.615 134.611 148.296C134.611 148.296 132.018 143.421 134.092 141.139L139.278 147.985C139.278 147.985 141.144 153.378 140.73 158.564L145.293 163.127Z" fill="#FCBB9D"/>
<path d="M145.293 163.127L138.863 170.595L135.814 167.546L143.053 160.887L145.293 163.127Z" fill="#E6A68A"/>
<path d="M136.063 172.047L144.567 161.364L165.723 170.802L187.812 136.264C187.812 136.264 194.449 127.137 220.791 123.403C220.791 123.403 234.687 122.989 237.799 148.918L239.458 206.17H179.101L180.968 191.235C180.968 191.235 174.434 198.599 169.767 196.213C159.957 191.173 136.063 172.047 136.063 172.047Z" fill="#F1884F"/>
<path d="M193.723 158.999L179.619 206.274H237.073L250.368 161.758C251.301 158.667 248.978 155.556 245.743 155.556H198.369C196.233 155.556 194.346 156.946 193.723 158.999Z" fill="#AFAFD5"/>
<path d="M201.812 158.999L187.708 206.274H245.162L258.457 161.758C259.39 158.667 257.067 155.556 253.832 155.556H206.459C204.322 155.556 202.435 156.946 201.812 158.999Z" fill="#DBDCF1"/>
<path d="M171.406 0H230.747C231.95 0 232.904 0.974947 232.904 2.15733V56.7336C232.904 57.9368 231.929 58.891 230.747 58.891H171.406C170.203 58.891 169.249 57.916 169.249 56.7336V2.15733C169.249 0.974947 170.224 0 171.406 0Z" fill="#DBDCF1"/>
<path d="M220.086 2.86261H181.839V5.64225H220.086V2.86261Z" fill="#AFAFD5"/>
<path d="M210.773 9.08569H172.754V54.763H210.773V9.08569Z" fill="white"/>
<path d="M204.82 13.2759H178.686V15.5162H204.82V13.2759Z" fill="#DBDCF1"/>
<path d="M204.862 17.2172H178.728V19.4575H204.862V17.2172Z" fill="#DBDCF1"/>
<path d="M229.585 16.3459H213.801V22.0919H229.585V16.3459Z" fill="#AFAFD5"/>
<path d="M229.585 36.9028H213.801V45.5529H229.585V36.9028Z" fill="#AFAFD5"/>
<path d="M229.564 24.9545H218.613V30.7005H229.564V24.9545Z" fill="#AFAFD5"/>
<path d="M229.585 31.8828H223.052V33.8742H229.585V31.8828Z" fill="#AFAFD5"/>
<path d="M229.585 47.2538H223.052V49.2452H229.585V47.2538Z" fill="#AFAFD5"/>
<path d="M220.293 47.2331H213.76V49.2245H220.293V47.2331Z" fill="#AFAFD5"/>
<path d="M194.014 26.8629C194.014 26.8629 193.827 25.8257 192.852 25.5146C192.852 25.5146 186.547 24.7885 181.942 30.7005C180.428 32.6504 179.391 36.9858 180.905 40.5329C182.316 43.8311 185.862 48.7266 192.562 48.4777C195.86 48.3532 201.667 45.7396 202.87 39.7239C203.493 36.6124 202.953 31.3228 197.229 28.3772C197.229 28.3772 193.267 26.4688 189.969 27.2778C189.969 27.2778 190.073 27.9831 190.903 28.3564C190.903 28.3564 197.892 27.5267 200.734 32.3392C200.734 32.3392 204.301 37.8363 198.722 44.1838C198.722 44.1838 192.811 50.2824 185.157 45.3454C185.157 45.3454 181.216 43.1466 181.403 37.048C181.486 34.4758 182.668 30.9079 186.962 28.5016C188.497 27.6097 190.654 26.6347 194.014 26.8629Z" fill="#E8315D"/>
<path d="M199.884 35.1603L198.66 35.2848V34.0194C198.66 33.895 198.639 33.7913 198.577 33.6875C198.411 33.3971 197.996 32.7956 197.54 32.8993C197.415 32.92 197.332 33.0445 197.332 33.1689V35.4922L195.175 35.7826C195.072 35.8034 195.009 35.9278 195.072 36.0108C195.196 36.1768 195.424 36.4257 195.86 36.6954C195.964 36.7783 196.109 36.7991 196.254 36.7991L197.332 36.7161V38.8527C197.332 38.9979 197.374 39.1638 197.478 39.2883C197.727 39.6202 198.245 40.1803 198.598 39.6202L198.701 36.5087L200.941 36.2183C201.024 36.1975 201.087 36.0938 201.024 36.0316C200.776 35.7619 200.278 35.1811 199.884 35.1603Z" fill="#E8315D"/>
<path d="M192.769 31.2605C191.836 30.0989 190.82 30.3478 190.82 30.3478C189.596 30.9701 187.791 36.9858 187.791 36.9858L184.224 37.6081C184.846 38.6038 185.593 38.6245 185.593 38.6245L187.335 38.4378L186.568 41.6531C186.92 42.1302 188.061 42.5036 188.061 42.5036L189.057 38.1474L191.815 37.7118L191.712 42.2131C191.774 43.6237 193.267 43.6859 193.267 43.6859L193.35 34.3928C193.35 32.111 192.769 31.2605 192.769 31.2605ZM189.451 36.8198C190.343 33.8742 191.732 31.7376 191.732 31.7376L191.836 36.5294L189.451 36.8198Z" fill="#E8315D"/>
<path d="M92.589 172.545C92.589 172.545 91.2823 175.864 92.589 178.809H72.553V172.545H92.589Z" fill="#DBDCF1"/>
<path d="M93.2943 178.892C93.2943 179.038 93.2528 179.183 93.1491 179.266C93.0661 179.349 92.9417 179.411 92.7965 179.411H50.5465C49.4265 179.411 48.5346 178.498 48.5346 177.399V173.914C48.5346 172.794 49.4472 171.902 50.5465 171.902H92.8172C93.0661 171.902 93.2943 172.109 93.2943 172.358C93.2943 172.628 93.0868 172.835 92.8172 172.835H74.876C73.9634 172.835 73.2375 173.561 73.2375 174.474V176.797C73.2375 177.71 73.9634 178.436 74.876 178.436H92.7965C93.0661 178.436 93.2943 178.623 93.2943 178.892Z" fill="#197A83"/>
<path d="M93.2942 178.892C93.2942 179.038 93.2528 179.183 93.149 179.266C93.0661 179.349 92.9416 179.411 92.7964 179.411H74.4197C73.1752 179.411 72.1796 178.395 72.1796 177.171V174.163C72.1796 172.918 73.1959 171.923 74.4197 171.923H92.7964C93.0453 171.923 93.2735 172.13 93.2735 172.379C93.2735 172.649 93.0661 172.856 92.7964 172.856H74.876C73.9634 172.856 73.2374 173.582 73.2374 174.495V176.818C73.2374 177.731 73.9634 178.457 74.876 178.457H92.7964C93.0661 178.436 93.2942 178.623 93.2942 178.892Z" fill="#156468"/>
<path d="M90.992 174.018H79.8124V174.101H90.992V174.018Z" fill="#373133"/>
<path d="M86.2422 174.018L87.0512 177.752L87.9223 176.403V174.287L86.2422 174.018Z" fill="#AFAFD5"/>
<path d="M90.3698 174.993V177.752L88.7519 176.528L87.0512 177.752V174.993C87.0512 174.308 86.2422 174.038 86.2422 174.038H89.8305C90.3698 174.184 90.3698 174.91 90.3698 174.993Z" fill="#6D68E0"/>
<path d="M90.3698 174.993H87.0512V174.972C87.0512 174.287 86.2422 174.018 86.2422 174.018H89.8305C90.3698 174.184 90.3698 174.91 90.3698 174.993Z" fill="#5A5ABA"/>
<path d="M50.4636 165.057C50.4636 165.057 51.791 168.687 50.4636 171.425H76.7427V165.057H50.4636Z" fill="#DBDCF1"/>
<path d="M94.8291 167.089V169.475C94.8291 170.802 93.7506 171.881 92.4231 171.881H50.505C50.2976 171.881 50.1317 171.715 50.1317 171.508V171.487C50.1317 171.28 50.2976 171.114 50.505 171.114H74.3367C75.2908 171.114 76.0583 170.346 76.0583 169.392V167.172C76.0583 166.218 75.2908 165.451 74.3367 165.451H50.505C50.4013 165.451 50.2976 165.409 50.2354 165.347C50.1524 165.264 50.1109 165.16 50.1317 165.057C50.1524 164.849 50.3184 164.704 50.5258 164.704H92.4231C93.7506 164.683 94.8291 165.762 94.8291 167.089Z" fill="#F1884F"/>
<path d="M77.1368 166.84V169.703C77.1368 170.906 76.162 171.881 74.959 171.881H50.505C50.2976 171.881 50.1317 171.715 50.1317 171.508V171.487C50.1317 171.28 50.2976 171.114 50.505 171.114H74.3368C75.2909 171.114 76.0583 170.346 76.0583 169.392V167.172C76.0583 166.218 75.2909 165.451 74.3368 165.451H50.505C50.4013 165.451 50.2976 165.409 50.2354 165.347C50.1524 165.264 50.1109 165.16 50.1317 165.057C50.1524 164.849 50.3184 164.704 50.5258 164.704H74.959C76.162 164.683 77.1368 165.658 77.1368 166.84Z" fill="#D37146"/>
<path d="M65.4595 169.309H54.28V169.392H65.4595V169.309Z" fill="#373133"/>
<path d="M62.8461 169.288H61.4149V171.093H62.8461V169.288Z" fill="#AFAFD5"/>
<path d="M61.9957 170.885V176.631L60.4401 175.242L58.926 176.631V171.114L61.9957 170.885Z" fill="#A82329"/>
<path d="M62.8461 169.288H59.7971C59.7971 169.288 59.7971 170.657 58.926 171.093H61.9749C61.9749 171.114 62.8461 170.885 62.8461 169.288Z" fill="#EE504F"/>
<path d="M291 205.963H0V207H291V205.963Z" fill="#373133"/>
</svg>
